<svg width="2141" height="512" viewBox="0 0 2141 512" version="1.1" xmlns="http://www.w3.org/2000/svg" xmlns:xlink="http://www.w3.org/1999/xlink">
<title>pancake</title>
<desc>Created using Figma</desc>
<g id="Canvas" transform="matrix(10.24 0 0 10.24 1628.16 1976.32)">
<g id="pancake">
<g id="Canvas">
<g id="logo dark">
<g id="Canvas">
<g id="Group">
<g id="Vector">
<g id="Vector">
<g id="Vector">
<use xlink:href="#path0_fill" transform="translate(-152.822 -186.24)" fill="#FFFFFF"/>
</g>
</g>
</g>
<g id="Vector">
<g id="Vector">
<g id="Vector">
<use xlink:href="#path1_fill" transform="translate(-159 -193)" fill="#FFFFFF"/>
</g>
</g>
</g>
<g id="Vector">
<g id="Vector">
<g id="Vector">
<use xlink:href="#path2_fill" transform="translate(-125.455 -175.74)" fill="#43B5C3"/>
</g>
</g>
</g>
</g>
</g>
<g id="PANCAKE">
<g id="Vector">
<use xlink:href="#path3_fill" transform="translate(-91.955 -178.532)" fill="#FFFFFF"/>
</g>
</g>
</g>
</g>
</g>
</g>
<defs>
<path id="path0_fill" d="M 1.15473 19.2841C 0.51963 19.2841 4.58669e-23 18.7644 4.58669e-23 18.1293C 4.58669e-23 13.9723 1.38568 10.1039 3.9261 6.81293C 5.19631 5.1963 6.69746 3.86836 8.42956 2.77136C 8.94919 2.42494 9.64203 2.59815 9.98845 3.11778C 10.3349 3.63741 10.1617 4.33025 9.64203 4.67667C 8.14088 5.6582 6.81293 6.81293 5.71594 8.25635C 3.4642 11.0855 2.30947 14.4919 2.30947 18.1293C 2.30947 18.7644 1.78984 19.2841 1.15473 19.2841ZM 14.3187 2.71363C 13.7991 2.71363 13.3372 2.36721 13.2217 1.84757C 13.1062 1.21247 13.4527 0.635104 14.0878 0.461894C 15.4157 0.115473 16.8591 4.58669e-23 18.2448 4.58669e-23C 18.8799 4.58669e-23 19.3995 0.51963 19.3995 1.15473C 19.3995 1.78984 18.8799 2.30947 18.2448 2.30947C 17.0323 2.30947 15.7621 2.42494 14.6074 2.71363C 14.4919 2.65589 14.3764 2.71363 14.3187 2.71363Z"/>
<path id="path1_fill" d="M 25 2.30947C 29.9076 2.30947 34.5266 3.86836 38.4527 6.7552C 41.6859 9.1224 44.1686 12.2402 45.7852 15.8776L 35.3349 19.2841C 33.2564 15.5889 29.388 13.2217 25 13.2217C 18.4757 13.164 13.164 18.4757 13.164 25C 13.164 31.5243 18.4757 36.836 25 36.836C 29.3303 36.836 33.2564 34.4688 35.3349 30.7737L 45.7852 34.1801C 44.2263 37.8176 41.6859 40.9353 38.4527 43.3025C 34.5266 46.1894 29.8499 47.7483 25 47.7483C 12.4711 47.6905 2.30947 37.5289 2.30947 25C 2.30947 12.4711 12.4711 2.30947 25 2.30947ZM 25 0C 11.2009 0 0 11.2009 0 25C 0 38.7991 11.2009 50 25 50C 36.0854 50 45.4965 42.7252 48.7875 32.7367L 34.0647 27.9446C 32.8522 31.7552 29.2148 34.5266 25 34.5266C 19.746 34.5266 15.4734 30.254 15.4734 25C 15.4734 19.746 19.746 15.4734 25 15.4734C 29.2148 15.4734 32.8522 18.2448 34.0647 22.0554L 48.7875 17.2633C 45.4965 7.27483 36.0854 0 25 0Z"/>
<path id="path2_fill" d="M 22.2286 2.94457C 22.5751 4.50346 22.7483 6.12009 22.7483 7.73672C 22.7483 9.35335 22.5751 10.97 22.2286 12.5289L 9.81524 8.4873L 7.44804 7.73672L 9.75751 6.98614L 22.2286 2.94457ZM 23.7875 9.17337e-23L 9.06467 4.79215L 2.0254e-22 7.73672L 9.06467 10.6813L 23.7875 15.4734C 24.5958 13.0485 25 10.4503 25 7.73672C 25 5.02309 24.5958 2.42494 23.7875 9.17337e-23Z"/>
<path id="path3_fill" d="M 7.917 0.232C 10.5463 0.232 12.615 0.86033 14.123 2.117C 15.631 3.3737 16.385 5.104 16.385 7.308C 16.385 9.512 15.631 11.2423 14.123 12.499C 12.615 13.7557 10.5463 14.384 7.917 14.384L 2.9 14.384L 2.9 20.532L 7.62939e-08 20.532L 7.62939e-08 0.232L 7.917 0.232ZM 7.83 11.861C 9.6667 11.861 11.0683 11.4743 12.035 10.701C 13.0017 9.9083 13.485 8.7773 13.485 7.308C 13.485 5.8387 13.0017 4.7173 12.035 3.944C 11.0683 3.1513 9.6667 2.755 7.83 2.755L 2.9 2.755L 2.9 11.861L 7.83 11.861ZM 32.56 15.457L 21.772 15.457L 19.539 20.532L 16.552 20.532L 25.745 0.232L 28.616 0.232L 37.838 20.532L 34.793 20.532L 32.56 15.457ZM 31.545 13.137L 27.166 3.19L 22.787 13.137L 31.545 13.137ZM 58.3242 0.232L 58.3242 20.532L 55.9462 20.532L 43.7662 5.394L 43.7662 20.532L 40.8662 20.532L 40.8662 0.232L 43.2442 0.232L 55.4242 15.37L 55.4242 0.232L 58.3242 0.232ZM 73.4774 20.764C 71.4474 20.764 69.6107 20.3193 67.9674 19.43C 66.3434 18.5213 65.0674 17.284 64.1394 15.718C 63.2114 14.1327 62.7474 12.354 62.7474 10.382C 62.7474 8.41 63.2114 6.641 64.1394 5.075C 65.0674 3.4897 66.3531 2.25233 67.9964 1.363C 69.6397 0.45433 71.4764 -6.48499e-08 73.5064 -6.48499e-08C 75.0917 -6.48499e-08 76.5417 0.27067 77.8564 0.812C 79.1711 1.334 80.2924 2.117 81.2204 3.161L 79.3354 4.988C 77.8081 3.3833 75.9037 2.581 73.6224 2.581C 72.1144 2.581 70.7514 2.9193 69.5334 3.596C 68.3154 4.2727 67.3584 5.2103 66.6624 6.409C 65.9857 7.5883 65.6474 8.9127 65.6474 10.382C 65.6474 11.8513 65.9857 13.1853 66.6624 14.384C 67.3584 15.5633 68.3154 16.4913 69.5334 17.168C 70.7514 17.8447 72.1144 18.183 73.6224 18.183C 75.8844 18.183 77.7887 17.371 79.3354 15.747L 81.2204 17.574C 80.2924 18.618 79.1614 19.4107 77.8274 19.952C 76.5127 20.4933 75.0627 20.764 73.4774 20.764ZM 97.81 15.457L 87.022 15.457L 84.789 20.532L 81.802 20.532L 90.995 0.232L 93.866 0.232L 103.088 20.532L 100.043 20.532L 97.81 15.457ZM 96.795 13.137L 92.416 3.19L 88.037 13.137L 96.795 13.137ZM 112.728 11.513L 109.016 15.283L 109.016 20.532L 106.116 20.532L 106.116 0.232L 109.016 0.232L 109.016 11.571L 120.036 0.232L 123.342 0.232L 114.671 9.367L 123.893 20.532L 120.5 20.532L 112.728 11.513ZM 141.692 18.009L 141.692 20.532L 126.96 20.532L 126.96 0.232L 141.286 0.232L 141.286 2.755L 129.86 2.755L 129.86 8.99L 140.039 8.99L 140.039 11.455L 129.86 11.455L 129.86 18.009L 141.692 18.009Z"/>
</defs>
</svg>
